<svg xmlns="http://www.w3.org/2000/svg" xmlns:xlink="http://www.w3.org/1999/xlink" viewBox="1090 1040 3010 530" preserveAspectRatio="xMidYMid meet" version="1.0"><defs><g/><clipPath id="240a5ca09b"><rect x="0" width="2994" y="0" height="892"/></clipPath></defs><g transform="matrix(1, 0, 0, 1, 1095, 849)"><g clip-path="url(#240a5ca09b)"><g fill="#ffffff" fill-opacity="1"><g transform="translate(0.555489, 694.127692)"><g><path d="M 118.15625 0 C 75.101562 -0.976562 53.578125 -22.75 53.578125 -65.3125 L 53.578125 -424.203125 C 53.578125 -467.742188 75.101562 -489.515625 118.15625 -489.515625 L 245.125 -489.515625 C 291.601562 -489.515625 327.566406 -479.726562 353.015625 -460.15625 C 368.671875 -447.925781 380.78125 -432.515625 389.34375 -413.921875 C 397.90625 -395.328125 402.1875 -375.023438 402.1875 -353.015625 C 402.1875 -333.441406 399.003906 -316.316406 392.640625 -301.640625 C 386.273438 -286.960938 376 -273.75 361.8125 -262 C 404.875 -233.625 426.40625 -194.238281 426.40625 -143.84375 C 426.40625 -117.914062 420.898438 -94.304688 409.890625 -73.015625 C 398.878906 -51.734375 383.585938 -34.734375 364.015625 -22.015625 C 341.992188 -7.335938 313.375 0 278.15625 0 Z M 243.65625 -297.234375 C 257.351562 -297.234375 267.628906 -298.703125 274.484375 -301.640625 C 281.328125 -304.566406 286.828125 -309.703125 290.984375 -317.046875 C 295.148438 -324.390625 297.234375 -332.21875 297.234375 -340.53125 C 297.234375 -354.71875 292.460938 -365.847656 282.921875 -373.921875 C 273.378906 -381.992188 260.046875 -386.03125 242.921875 -386.03125 L 165.859375 -386.03125 L 165.859375 -297.234375 Z M 255.40625 -102.015625 C 263.71875 -102.015625 270.316406 -102.503906 275.203125 -103.484375 C 280.097656 -104.460938 284.75 -106.421875 289.15625 -109.359375 C 296.007812 -113.265625 301.757812 -119.253906 306.40625 -127.328125 C 311.050781 -135.398438 313.375 -143.597656 313.375 -151.921875 C 313.375 -167.578125 308.113281 -180.050781 297.59375 -189.34375 C 287.070312 -198.644531 273.253906 -203.296875 256.140625 -203.296875 L 165.859375 -203.296875 L 165.859375 -102.015625 Z M 255.40625 -102.015625 "/></g></g></g><g fill="#ffffff" fill-opacity="1"><g transform="translate(449.707743, 694.127692)"><g><path d="M 259.0625 -171.734375 L 259.0625 -297.96875 C 259.550781 -314.601562 264.195312 -327.8125 273 -337.59375 C 281.8125 -347.382812 293.554688 -352.28125 308.234375 -352.28125 C 322.429688 -352.28125 334.050781 -347.265625 343.09375 -337.234375 C 352.144531 -327.203125 356.671875 -314.113281 356.671875 -297.96875 L 356.671875 -163.65625 C 356.671875 -139.6875 353.976562 -118.894531 348.59375 -101.28125 C 343.21875 -83.664062 334.414062 -67.273438 322.1875 -52.109375 C 307.507812 -33.515625 289.40625 -18.957031 267.875 -8.4375 C 246.34375 2.082031 223.835938 7.34375 200.359375 7.34375 C 172.953125 7.34375 146.894531 0.367188 122.1875 -13.578125 C 97.488281 -27.523438 77.796875 -46.484375 63.109375 -70.453125 C 56.265625 -81.703125 51.003906 -95.644531 47.328125 -112.28125 C 43.660156 -128.914062 41.828125 -146.773438 41.828125 -165.859375 L 41.828125 -297.96875 C 42.316406 -314.601562 46.84375 -327.8125 55.40625 -337.59375 C 63.96875 -347.382812 75.585938 -352.28125 90.265625 -352.28125 C 104.941406 -352.28125 116.804688 -347.265625 125.859375 -337.234375 C 134.910156 -327.203125 139.4375 -314.113281 139.4375 -297.96875 L 139.4375 -174.671875 C 139.4375 -159.992188 139.925781 -149.472656 140.90625 -143.109375 C 141.882812 -136.753906 143.597656 -130.640625 146.046875 -124.765625 C 150.453125 -114.984375 157.671875 -106.785156 167.703125 -100.171875 C 177.734375 -93.566406 188.375 -90.265625 199.625 -90.265625 C 216.75 -90.265625 230.9375 -96.378906 242.1875 -108.609375 C 253.4375 -120.847656 259.0625 -135.773438 259.0625 -153.390625 Z M 259.0625 -171.734375 "/></g></g></g><g fill="#ffffff" fill-opacity="1"><g transform="translate(848.220182, 694.127692)"><g/></g></g><g fill="#ffffff" fill-opacity="1"><g transform="translate(1039.036525, 694.127692)"><g><path d="M 44.03125 -435.203125 C 44.03125 -451.835938 48.554688 -465.046875 57.609375 -474.828125 C 66.660156 -484.617188 78.523438 -489.515625 93.203125 -489.515625 C 107.878906 -489.515625 119.617188 -484.5 128.421875 -474.46875 C 137.234375 -464.4375 141.640625 -451.347656 141.640625 -435.203125 L 141.640625 -51.375 C 141.640625 -33.757812 137.359375 -19.9375 128.796875 -9.90625 C 120.234375 0.125 108.367188 5.140625 93.203125 5.140625 C 78.523438 5.140625 66.660156 0.125 57.609375 -9.90625 C 48.554688 -19.9375 44.03125 -33.023438 44.03125 -49.171875 Z M 44.03125 -435.203125 "/></g></g></g><g fill="#ffffff" fill-opacity="1"><g transform="translate(1225.449267, 694.127692)"><g><path d="M 284.75 -424.203125 L 284.75 -435.203125 C 285.238281 -451.835938 289.882812 -465.046875 298.6875 -474.828125 C 307.5 -484.617188 319 -489.515625 333.1875 -489.515625 C 347.863281 -489.515625 359.726562 -484.5 368.78125 -474.46875 C 377.832031 -464.4375 382.359375 -451.347656 382.359375 -435.203125 L 382.359375 -58.71875 C 382.359375 -46.96875 381.867188 -38.15625 380.890625 -32.28125 C 379.910156 -26.414062 377.957031 -21.035156 375.03125 -16.140625 C 371.113281 -9.296875 365.726562 -4.035156 358.875 -0.359375 C 352.03125 3.304688 344.203125 5.140625 335.390625 5.140625 C 312.890625 5.140625 297.476562 -6.601562 289.15625 -30.09375 C 273.5 -16.394531 258.085938 -6.726562 242.921875 -1.09375 C 227.753906 4.53125 209.894531 7.34375 189.34375 7.34375 C 164.882812 7.34375 142.253906 2.816406 121.453125 -6.234375 C 100.660156 -15.285156 82.800781 -27.882812 67.875 -44.03125 C 52.957031 -60.175781 41.21875 -79.378906 32.65625 -101.640625 C 24.09375 -123.898438 19.8125 -148 19.8125 -173.9375 C 19.8125 -199.375 24.09375 -223.101562 32.65625 -245.125 C 41.21875 -267.144531 52.957031 -286.226562 67.875 -302.375 C 82.800781 -318.519531 100.414062 -331.238281 120.71875 -340.53125 C 141.03125 -349.832031 163.171875 -354.484375 187.140625 -354.484375 C 206.222656 -354.484375 223.46875 -351.789062 238.875 -346.40625 C 254.289062 -341.019531 269.582031 -332.457031 284.75 -320.71875 Z M 204.765625 -256.140625 C 193.503906 -256.140625 182.859375 -253.9375 172.828125 -249.53125 C 162.804688 -245.125 154 -239.25 146.40625 -231.90625 C 138.820312 -224.570312 132.828125 -216.007812 128.421875 -206.21875 C 124.023438 -196.4375 121.828125 -185.921875 121.828125 -174.671875 C 121.828125 -162.929688 124.023438 -152.046875 128.421875 -142.015625 C 132.828125 -131.984375 138.703125 -123.175781 146.046875 -115.59375 C 153.390625 -108.007812 162.070312 -102.015625 172.09375 -97.609375 C 182.125 -93.203125 193.015625 -91 204.765625 -91 C 216.015625 -91 226.65625 -93.203125 236.6875 -97.609375 C 246.71875 -102.015625 255.398438 -108.007812 262.734375 -115.59375 C 270.078125 -123.175781 275.945312 -131.984375 280.34375 -142.015625 C 284.75 -152.046875 286.953125 -162.6875 286.953125 -173.9375 C 286.953125 -185.1875 284.75 -195.828125 280.34375 -205.859375 C 275.945312 -215.890625 270.078125 -224.570312 262.734375 -231.90625 C 255.398438 -239.25 246.71875 -245.125 236.6875 -249.53125 C 226.65625 -253.9375 216.015625 -256.140625 204.765625 -256.140625 Z M 204.765625 -256.140625 "/></g></g></g><g fill="#ffffff" fill-opacity="1"><g transform="translate(1652.584209, 694.127692)"><g><path d="M 319.984375 -60.1875 C 319.984375 -47.457031 319.25 -38.035156 317.78125 -31.921875 C 316.3125 -25.804688 313.375 -19.8125 308.96875 -13.9375 C 299.1875 -1.21875 285.976562 5.140625 269.34375 5.140625 C 259.070312 5.140625 250.265625 2.816406 242.921875 -1.828125 C 235.585938 -6.484375 229.226562 -14.191406 223.84375 -24.953125 C 209.65625 -13.703125 195.953125 -5.628906 182.734375 -0.734375 C 169.523438 4.160156 155.582031 6.609375 140.90625 6.609375 C 123.78125 6.609375 107.878906 3.429688 93.203125 -2.921875 C 78.523438 -9.285156 65.679688 -18.21875 54.671875 -29.71875 C 43.660156 -41.21875 35.097656 -54.550781 28.984375 -69.71875 C 22.867188 -84.882812 19.8125 -101.273438 19.8125 -118.890625 C 19.8125 -136.992188 23.113281 -153.875 29.71875 -169.53125 C 36.320312 -185.1875 45.375 -198.765625 56.875 -210.265625 C 68.375 -221.765625 81.828125 -230.816406 97.234375 -237.421875 C 112.648438 -244.023438 129.410156 -247.328125 147.515625 -247.328125 C 159.742188 -247.328125 171.609375 -245.613281 183.109375 -242.1875 C 194.609375 -238.757812 206.960938 -233.625 220.171875 -226.78125 C 220.171875 -244.882812 216.867188 -257.601562 210.265625 -264.9375 C 203.660156 -272.28125 192.53125 -275.953125 176.875 -275.953125 C 169.039062 -275.953125 160.234375 -274.726562 150.453125 -272.28125 L 126.96875 -265.671875 C 120.113281 -263.222656 114.363281 -261.628906 109.71875 -260.890625 C 105.070312 -260.160156 100.789062 -259.796875 96.875 -259.796875 C 85.625 -259.796875 76.453125 -263.460938 69.359375 -270.796875 C 62.265625 -278.140625 58.71875 -287.441406 58.71875 -298.703125 C 58.71875 -317.785156 69.476562 -333.070312 91 -344.5625 C 112.53125 -356.0625 140.664062 -361.8125 175.40625 -361.8125 C 199.375 -361.8125 221.265625 -358.507812 241.078125 -351.90625 C 260.898438 -345.300781 277.171875 -335.640625 289.890625 -322.921875 C 300.648438 -311.660156 308.351562 -297.835938 313 -281.453125 C 317.65625 -265.066406 319.984375 -243.660156 319.984375 -217.234375 Z M 220.171875 -121.828125 C 220.171875 -136.015625 215.644531 -148 206.59375 -157.78125 C 197.539062 -167.570312 185.921875 -172.46875 171.734375 -172.46875 C 158.523438 -172.46875 147.269531 -167.695312 137.96875 -158.15625 C 128.675781 -148.613281 124.03125 -136.992188 124.03125 -123.296875 C 124.03125 -109.109375 128.675781 -97.363281 137.96875 -88.0625 C 147.269531 -78.769531 159.015625 -74.125 173.203125 -74.125 C 186.898438 -74.125 198.148438 -78.648438 206.953125 -87.703125 C 215.765625 -96.753906 220.171875 -108.128906 220.171875 -121.828125 Z M 220.171875 -121.828125 "/></g></g></g><g fill="#ffffff" fill-opacity="1"><g transform="translate(2013.667234, 694.127692)"><g><path d="M 44.03125 -424.203125 L 44.03125 -435.203125 C 44.519531 -451.835938 49.164062 -465.046875 57.96875 -474.828125 C 66.78125 -484.617188 78.523438 -489.515625 93.203125 -489.515625 C 107.390625 -489.515625 119.007812 -484.5 128.0625 -474.46875 C 137.113281 -464.4375 141.640625 -451.347656 141.640625 -435.203125 L 141.640625 -320.71875 C 156.804688 -332.457031 172.09375 -341.019531 187.5 -346.40625 C 202.914062 -351.789062 220.164062 -354.484375 239.25 -354.484375 C 263.226562 -354.484375 285.367188 -349.832031 305.671875 -340.53125 C 325.972656 -331.238281 343.582031 -318.519531 358.5 -302.375 C 373.425781 -286.226562 385.171875 -267.144531 393.734375 -245.125 C 402.296875 -223.101562 406.578125 -199.375 406.578125 -173.9375 C 406.578125 -148 402.296875 -123.898438 393.734375 -101.640625 C 385.171875 -79.378906 373.425781 -60.175781 358.5 -44.03125 C 343.582031 -27.882812 325.726562 -15.285156 304.9375 -6.234375 C 284.144531 2.816406 261.515625 7.34375 237.046875 7.34375 C 216.503906 7.34375 198.644531 4.53125 183.46875 -1.09375 C 168.300781 -6.726562 152.890625 -16.394531 137.234375 -30.09375 C 129.410156 -6.601562 114 5.140625 91 5.140625 C 82.195312 5.140625 74.25 3.304688 67.15625 -0.359375 C 60.0625 -4.035156 54.800781 -9.296875 51.375 -16.140625 C 48.4375 -21.523438 46.476562 -27.03125 45.5 -32.65625 C 44.519531 -38.28125 44.03125 -46.96875 44.03125 -58.71875 Z M 221.640625 -256.140625 C 210.390625 -256.140625 199.75 -253.9375 189.71875 -249.53125 C 179.6875 -245.125 171 -239.25 163.65625 -231.90625 C 156.320312 -224.570312 150.453125 -215.890625 146.046875 -205.859375 C 141.640625 -195.828125 139.4375 -185.1875 139.4375 -173.9375 C 139.4375 -162.195312 141.640625 -151.3125 146.046875 -141.28125 C 150.453125 -131.25 156.320312 -122.5625 163.65625 -115.21875 C 171 -107.882812 179.6875 -102.015625 189.71875 -97.609375 C 199.75 -93.203125 210.390625 -91 221.640625 -91 C 233.378906 -91 244.265625 -93.203125 254.296875 -97.609375 C 264.328125 -102.015625 273.007812 -108.007812 280.34375 -115.59375 C 287.6875 -123.175781 293.5625 -131.984375 297.96875 -142.015625 C 302.375 -152.046875 304.578125 -162.929688 304.578125 -174.671875 C 304.578125 -185.921875 302.375 -196.4375 297.96875 -206.21875 C 293.5625 -216.007812 287.566406 -224.570312 279.984375 -231.90625 C 272.398438 -239.25 263.59375 -245.125 253.5625 -249.53125 C 243.53125 -253.9375 232.890625 -256.140625 221.640625 -256.140625 Z M 221.640625 -256.140625 "/></g></g></g><g fill="#ffffff" fill-opacity="1"><g transform="translate(2440.068275, 694.127692)"><g><path d="M 44.03125 -435.203125 C 44.03125 -451.835938 48.554688 -465.046875 57.609375 -474.828125 C 66.660156 -484.617188 78.523438 -489.515625 93.203125 -489.515625 C 107.878906 -489.515625 119.617188 -484.5 128.421875 -474.46875 C 137.234375 -464.4375 141.640625 -451.347656 141.640625 -435.203125 L 141.640625 -51.375 C 141.640625 -33.757812 137.359375 -19.9375 128.796875 -9.90625 C 120.234375 0.125 108.367188 5.140625 93.203125 5.140625 C 78.523438 5.140625 66.660156 0.125 57.609375 -9.90625 C 48.554688 -19.9375 44.03125 -33.023438 44.03125 -49.171875 Z M 44.03125 -435.203125 "/></g></g></g><g fill="#ffffff" fill-opacity="1"><g transform="translate(2626.481129, 694.127692)"><g><path d="M 148.984375 -113.015625 C 164.148438 -99.804688 181.765625 -93.203125 201.828125 -93.203125 C 211.609375 -93.203125 221.023438 -94.789062 230.078125 -97.96875 C 239.128906 -101.15625 248.546875 -106.414062 258.328125 -113.75 C 264.203125 -118.15625 269.460938 -121.210938 274.109375 -122.921875 C 278.765625 -124.640625 283.78125 -125.5 289.15625 -125.5 C 303.34375 -125.5 315.082031 -120.847656 324.375 -111.546875 C 333.675781 -102.253906 338.328125 -90.757812 338.328125 -77.0625 C 338.328125 -66.78125 335.390625 -57.359375 329.515625 -48.796875 C 323.648438 -40.242188 314.359375 -31.5625 301.640625 -22.75 C 287.941406 -12.96875 272.285156 -5.503906 254.671875 -0.359375 C 237.054688 4.773438 219.441406 7.34375 201.828125 7.34375 C 177.359375 7.34375 154.113281 2.453125 132.09375 -7.328125 C 110.082031 -17.117188 90.757812 -30.332031 74.125 -46.96875 C 57.488281 -63.601562 44.273438 -82.925781 34.484375 -104.9375 C 24.703125 -126.957031 19.8125 -150.203125 19.8125 -174.671875 C 19.8125 -199.128906 24.582031 -222.242188 34.125 -244.015625 C 43.664062 -265.796875 56.628906 -284.878906 73.015625 -301.265625 C 89.410156 -317.660156 108.367188 -330.628906 129.890625 -340.171875 C 151.421875 -349.710938 174.421875 -354.484375 198.890625 -354.484375 C 218.460938 -354.484375 237.539062 -351.175781 256.125 -344.5625 C 274.71875 -337.957031 291.109375 -329.03125 305.296875 -317.78125 C 319.492188 -306.53125 330.875 -293.566406 339.4375 -278.890625 C 348 -264.210938 352.28125 -248.796875 352.28125 -232.640625 C 352.28125 -221.878906 349.21875 -212.953125 343.09375 -205.859375 C 336.976562 -198.765625 326.582031 -191.789062 311.90625 -184.9375 Z M 245.125 -238.515625 C 236.320312 -252.210938 221.890625 -259.0625 201.828125 -259.0625 C 180.296875 -259.0625 161.820312 -251.96875 146.40625 -237.78125 C 131 -223.59375 122.316406 -205.976562 120.359375 -184.9375 Z M 245.125 -238.515625 "/></g></g></g></g></g></svg>